HIERARCHY
ROOT Hips
{
	OFFSET 0.000000 83.214638 0.000000
	CHANNELS 6 Xposition Yposition Zposition Xrotation Yrotation Zrotation
	JOINT Pelvis
	{
		OFFSET 0.000000 0.000000 0.000000
		CHANNELS 3 Xrotation Yrotation Zrotation
		JOINT LeftUpLeg
		{
			OFFSET 8.479700 -4.795502 -0.379100
			CHANNELS 3 Xrotation Yrotation Zrotation
			JOINT LeftLeg
			{
				OFFSET 0.024144 -32.555107 0.112900
				CHANNELS 3 Xrotation Yrotation Zrotation
				JOINT LeftFoot
				{
					OFFSET -0.024144 -32.638630 -3.012600
					CHANNELS 3 Xrotation Yrotation Zrotation
					JOINT LeftToeBase
					{
						OFFSET 0.970200 -13.225400 11.864200
						CHANNELS 3 Xrotation Yrotation Zrotation
						End Site
						{
							OFFSET 0.000000 12.319262 0.000000
						}
					}
					JOINT LFootTongue
					{
						OFFSET 1.142400 -1.059800 6.665200
						CHANNELS 3 Xrotation Yrotation Zrotation
						End Site
						{
							OFFSET 0.000000 12.319262 0.000000
						}
					}
				}
				JOINT LeftPantLeg
				{
					OFFSET 0.918482 -16.533964 -2.284700
					CHANNELS 3 Xrotation Yrotation Zrotation
					End Site
					{
						OFFSET 0.350399 24.744368 0.000000
					}
				}
			}
		}
		JOINT RightUpLeg
		{
			OFFSET -8.479700 -4.795502 -0.379100
			CHANNELS 3 Xrotation Yrotation Zrotation
			JOINT RightLeg
			{
				OFFSET -0.023144 -32.555092 0.112900
				CHANNELS 3 Xrotation Yrotation Zrotation
				JOINT RightFoot
				{
					OFFSET 0.023144 -32.638641 -3.012700
					CHANNELS 3 Xrotation Yrotation Zrotation
					JOINT RightToeBase
					{
						OFFSET -0.970200 -13.225400 11.864200
						CHANNELS 3 Xrotation Yrotation Zrotation
						End Site
						{
							OFFSET 0.000000 12.319244 0.000000
						}
					}
					JOINT RFootTongue
					{
						OFFSET -1.142200 -1.059800 6.665200
						CHANNELS 3 Xrotation Yrotation Zrotation
						End Site
						{
							OFFSET 0.000000 12.319243 0.000000
						}
					}
				}
				JOINT RightPantLeg
				{
					OFFSET -0.919482 -16.533978 -2.284800
					CHANNELS 3 Xrotation Yrotation Zrotation
					End Site
					{
						OFFSET -0.350400 24.744419 0.000000
					}
				}
			}
		}
	}
	JOINT Spine
	{
		OFFSET 0.000000 7.722000 1.166200
		CHANNELS 3 Xrotation Yrotation Zrotation
		JOINT Spine1
		{
			OFFSET 0.000000 12.024101 0.248800
			CHANNELS 3 Xrotation Yrotation Zrotation
			JOINT Spine2
			{
				OFFSET 0.000000 11.502998 -0.491200
				CHANNELS 3 Xrotation Yrotation Zrotation
				JOINT Neck
				{
					OFFSET 0.000000 18.430702 -3.123100
					CHANNELS 3 Xrotation Yrotation Zrotation
					JOINT Head
					{
						OFFSET 0.000000 9.051102 1.034000
						CHANNELS 3 Xrotation Yrotation Zrotation
						JOINT HairB
						{
							OFFSET 0.208400 24.786102 24.822300
							CHANNELS 3 Xrotation Yrotation Zrotation
							End Site
							{
								OFFSET 0.000000 32.263779 0.000000
							}
						}
						JOINT HairA
						{
							OFFSET -7.081100 24.428299 23.196600
							CHANNELS 3 Xrotation Yrotation Zrotation
							End Site
							{
								OFFSET 0.000000 32.263779 0.000000
							}
						}
						JOINT Hat
						{
							OFFSET 16.728800 15.048294 -15.439601
							CHANNELS 3 Xrotation Yrotation Zrotation
							End Site
							{
								OFFSET 0.000000 32.263779 0.000000
							}
						}
					}
				}
				JOINT LeftShoulder
				{
					OFFSET 6.197800 13.665199 -4.064700
					CHANNELS 3 Xrotation Yrotation Zrotation
					JOINT LeftArm
					{
						OFFSET 7.778100 -0.187103 -1.709300
						CHANNELS 3 Xrotation Yrotation Zrotation
						JOINT LeftForeArm
						{
							OFFSET 22.049376 0.000000 0.000000
							CHANNELS 3 Xrotation Yrotation Zrotation
							JOINT LeftHand
							{
								OFFSET 23.009392 0.000000 0.000000
								CHANNELS 3 Xrotation Yrotation Zrotation
								JOINT LeftHandThumb1
								{
									OFFSET 3.507191 -2.063065 3.133727
									CHANNELS 3 Xrotation Yrotation Zrotation
									JOINT LeftHandThumb2
									{
										OFFSET 3.101337 -1.790558 1.790558
										CHANNELS 3 Xrotation Yrotation Zrotation
										JOINT LeftHandThumb3
										{
											OFFSET 3.058640 -1.765907 1.765906
											CHANNELS 3 Xrotation Yrotation Zrotation
											End Site
											{
												OFFSET -0.415260 3.926476 -0.049563
											}
										}
									}
								}
								JOINT LeftHandIndex1
								{
									OFFSET 11.334419 -0.901459 3.706815
									CHANNELS 3 Xrotation Yrotation Zrotation
									JOINT LeftHandIndex2
									{
										OFFSET 3.283112 0.000000 0.000000
										CHANNELS 3 Xrotation Yrotation Zrotation
										JOINT LeftHandIndex3
										{
											OFFSET 3.323853 0.000000 0.000000
											CHANNELS 3 Xrotation Yrotation Zrotation
											End Site
											{
												OFFSET -1.135597 3.097809 0.402452
											}
										}
									}
								}
								JOINT LeftHandMiddle1
								{
									OFFSET 11.335861 0.000000 0.000000
									CHANNELS 3 Xrotation Yrotation Zrotation
									JOINT LeftHandMiddle2
									{
										OFFSET 3.410492 0.000000 0.000000
										CHANNELS 3 Xrotation Yrotation Zrotation
										JOINT LeftHandMiddle3
										{
											OFFSET 3.312172 0.000000 0.000000
											CHANNELS 3 Xrotation Yrotation Zrotation
											End Site
											{
												OFFSET -1.150200 3.080154 0.400270
											}
										}
									}
								}
								JOINT LeftHandRing1
								{
									OFFSET 11.514786 -0.013176 -3.003090
									CHANNELS 3 Xrotation Yrotation Zrotation
									JOINT LeftHandRing2
									{
										OFFSET 3.053307 0.000000 0.000000
										CHANNELS 3 Xrotation Yrotation Zrotation
										JOINT LeftHandRing3
										{
											OFFSET 3.295807 0.000000 0.000000
											CHANNELS 3 Xrotation Yrotation Zrotation
											End Site
											{
												OFFSET -1.281006 3.013344 0.375733
											}
										}
									}
								}
								JOINT LeftHandPinky1
								{
									OFFSET 10.518692 -0.960396 -5.730441
									CHANNELS 3 Xrotation Yrotation Zrotation
									JOINT LeftHandPinky2
									{
										OFFSET 2.861649 0.000000 0.000000
										CHANNELS 3 Xrotation Yrotation Zrotation
										JOINT LeftHandPinky3
										{
											OFFSET 2.863380 0.000000 0.000000
											CHANNELS 3 Xrotation Yrotation Zrotation
											End Site
											{
												OFFSET -0.843597 2.711159 0.369971
											}
										}
									}
								}
							}
							JOINT LSleeve
							{
								OFFSET 6.676277 -0.344902 -1.011730
								CHANNELS 3 Xrotation Yrotation Zrotation
								End Site
								{
									OFFSET 0.000000 14.885353 0.000000
								}
							}
						}
					}
				}
				JOINT RightShoulder
				{
					OFFSET -6.197800 13.665199 -4.064700
					CHANNELS 3 Xrotation Yrotation Zrotation
					JOINT RightArm
					{
						OFFSET -7.778100 -0.187103 -1.709300
						CHANNELS 3 Xrotation Yrotation Zrotation
						JOINT RightForeArm
						{
							OFFSET -22.049376 0.000000 0.000000
							CHANNELS 3 Xrotation Yrotation Zrotation
							JOINT RightHand
							{
								OFFSET -23.009392 0.000000 0.000000
								CHANNELS 3 Xrotation Yrotation Zrotation
								JOINT RightHandThumb1
								{
									OFFSET -3.507191 -2.063065 3.133727
									CHANNELS 3 Xrotation Yrotation Zrotation
									JOINT RightHandThumb2
									{
										OFFSET -3.101337 -1.790558 1.790558
										CHANNELS 3 Xrotation Yrotation Zrotation
										JOINT RightHandThumb3
										{
											OFFSET -3.058640 -1.765907 1.765906
											CHANNELS 3 Xrotation Yrotation Zrotation
											End Site
											{
												OFFSET 0.415260 3.926476 -0.049563
											}
										}
									}
								}
								JOINT RightHandIndex1
								{
									OFFSET -11.334419 -0.901459 3.706815
									CHANNELS 3 Xrotation Yrotation Zrotation
									JOINT RightHandIndex2
									{
										OFFSET -3.283112 0.000000 0.000000
										CHANNELS 3 Xrotation Yrotation Zrotation
										JOINT RightHandIndex3
										{
											OFFSET -3.323853 0.000000 0.000000
											CHANNELS 3 Xrotation Yrotation Zrotation
											End Site
											{
												OFFSET 1.135597 3.097809 0.402452
											}
										}
									}
								}
								JOINT RightHandMiddle1
								{
									OFFSET -11.335861 0.000000 0.000000
									CHANNELS 3 Xrotation Yrotation Zrotation
									JOINT RightHandMiddle2
									{
										OFFSET -3.410492 0.000000 0.000000
										CHANNELS 3 Xrotation Yrotation Zrotation
										JOINT RightHandMiddle3
										{
											OFFSET -3.312172 0.000000 0.000000
											CHANNELS 3 Xrotation Yrotation Zrotation
											End Site
											{
												OFFSET 1.150200 3.080154 0.400270
											}
										}
									}
								}
								JOINT RightHandRing1
								{
									OFFSET -11.514786 -0.013176 -3.003090
									CHANNELS 3 Xrotation Yrotation Zrotation
									JOINT RightHandRing2
									{
										OFFSET -3.053307 0.000000 0.000000
										CHANNELS 3 Xrotation Yrotation Zrotation
										JOINT RightHandRing3
										{
											OFFSET -3.295807 0.000000 0.000000
											CHANNELS 3 Xrotation Yrotation Zrotation
											End Site
											{
												OFFSET 1.281006 3.013344 0.375733
											}
										}
									}
								}
								JOINT RightHandPinky1
								{
									OFFSET -10.518692 -0.960396 -5.730441
									CHANNELS 3 Xrotation Yrotation Zrotation
									JOINT RightHandPinky2
									{
										OFFSET -2.861649 0.000000 0.000000
										CHANNELS 3 Xrotation Yrotation Zrotation
										JOINT RightHandPinky3
										{
											OFFSET -2.863380 0.000000 0.000000
											CHANNELS 3 Xrotation Yrotation Zrotation
											End Site
											{
												OFFSET 0.843597 2.711159 0.369971
											}
										}
									}
								}
							}
							JOINT RSleeve
							{
								OFFSET -6.676277 -0.344902 -1.011730
								CHANNELS 3 Xrotation Yrotation Zrotation
								End Site
								{
									OFFSET 0.000000 14.885353 0.000000
								}
							}
						}
					}
				}
				JOINT Backpack
				{
					OFFSET 0.000000 -2.471497 36.677502
					CHANNELS 3 Xrotation Yrotation Zrotation
					End Site
					{
						OFFSET 0.000000 20.427315 0.000000
					}
				}
				JOINT Hood
				{
					OFFSET 0.000000 18.754097 -10.431000
					CHANNELS 3 Xrotation Yrotation Zrotation
					JOINT Hood1
					{
						OFFSET 0.000000 -5.011002 -7.685901
						CHANNELS 3 Xrotation Yrotation Zrotation
						End Site
						{
							OFFSET 0.000000 9.175140 0.000000
						}
					}
				}
				JOINT LHoodieString
				{
					OFFSET 5.250500 16.397697 3.089900
					CHANNELS 3 Xrotation Yrotation Zrotation
					JOINT LHoodieString1
					{
						OFFSET 0.257700 -6.364304 3.694600
						CHANNELS 3 Xrotation Yrotation Zrotation
						JOINT LHoodieString2
						{
							OFFSET 0.000000 -9.643799 2.679100
							CHANNELS 3 Xrotation Yrotation Zrotation
							End Site
							{
								OFFSET 0.000000 10.009018 0.000000
							}
						}
					}
				}
				JOINT RHoodieString
				{
					OFFSET -5.250500 16.397697 3.089900
					CHANNELS 3 Xrotation Yrotation Zrotation
					JOINT RHoodieString1
					{
						OFFSET -0.257700 -6.364304 3.694600
						CHANNELS 3 Xrotation Yrotation Zrotation
						JOINT RHoodieString2
						{
							OFFSET 0.000000 -9.643799 2.679100
							CHANNELS 3 Xrotation Yrotation Zrotation
							End Site
							{
								OFFSET 0.000000 10.009018 0.000000
							}
						}
					}
				}
			}
			JOINT LBackpack_Strap
			{
				OFFSET 15.223200 -7.719803 -6.610900
				CHANNELS 3 Xrotation Yrotation Zrotation
				End Site
				{
					OFFSET 0.000000 16.040596 0.000000
				}
			}
			JOINT RBackpack_Strap
			{
				OFFSET -15.223000 -7.719803 -6.610900
				CHANNELS 3 Xrotation Yrotation Zrotation
				End Site
				{
					OFFSET 0.000000 16.040596 0.000000
				}
			}
		}
	}
	JOINT BoyFacialAnim_Joint
	{
		OFFSET 1.000000 -82.208099 -1.550900
		CHANNELS 3 Xrotation Yrotation Zrotation
		End Site
		{
			OFFSET 0.000000 30.012791 0.000000
		}
	}
}
MOTION
Frames: 5
Frame Time: 0.033333
-0.097211 80.994026 0.499386 -2.388953 2.580483 -2.305635 0.000000 0.000000 0.000000 -30.125956 3.708577 6.393580 60.150799 1.534748 0.551701 -0.857526 0.466728 -7.886953 -0.000000 0.000000 0.000000 -0.000000 0.000000 -0.000000 -0.000000 -0.000000 -0.000000 -9.261275 -4.974322 6.740000 26.712984 6.923871 1.131981 -11.956717 1.691183 -10.009548 -0.000000 0.000001 -0.000000 -0.000000 0.000001 -0.000000 -0.000002 -0.000001 0.000000 14.311525 1.164196 2.879770 -4.344028 0.844261 -0.932464 -4.329079 0.772025 -1.030092 -0.100905 -1.689906 2.622553 -5.840196 -0.460707 -1.540032 -0.000000 0.000000 -0.000000 -0.000000 0.000000 -0.000000 -0.000000 0.000000 -0.000000 2.370574 2.599464 -1.341546 -3.621568 -8.176712 -74.042194 12.004532 -10.522125 -9.011478 -0.378921 1.905514 11.578156 -4.982862 13.405852 11.311773 3.517334 8.486199 1.851502 0.000000 -0.000001 -0.000002 0.376699 -6.145563 -25.285034 -0.034531 0.056866 -22.183893 0.000000 0.000000 -0.000002 -0.682832 -5.541202 -29.068353 -0.000913 0.003750 -24.675177 0.000003 0.000002 0.000002 -1.915516 -6.193611 -34.198583 0.001218 0.005467 -28.105363 -0.000001 0.000001 -0.000002 -3.466235 -6.910122 -39.124560 -0.009191 0.002703 -31.381666 -0.000001 0.000000 0.000003 -0.000000 0.000001 0.000000 3.460709 0.236090 4.393008 -1.477761 25.831512 70.378618 6.809916 19.846496 4.732043 -19.537587 0.958168 -12.165052 -0.782965 -20.555753 -5.075709 4.541218 -11.071003 -2.314867 -0.000001 0.000001 0.000002 0.748697 1.485544 23.202877 -0.036687 -0.055032 19.908330 -0.000003 0.000000 0.000002 -0.268008 2.185013 25.525086 -0.000240 0.002730 21.457756 -0.000000 -0.000000 0.000003 -1.284798 3.638254 29.547887 0.000920 -0.004735 24.164385 -0.000002 -0.000001 0.000002 -2.714514 5.335790 33.797501 0.001090 -0.005439 26.995378 -0.000003 0.000000 -0.000001 0.000002 0.000001 -0.000002 0.000000 -0.000000 0.000000 0.000000 -0.000000 0.000000 0.000000 -0.000000 0.000000 0.000000 -0.000000 0.000000 0.000000 -0.000000 0.000000 0.000000 -0.000000 0.000000 0.000000 -0.000000 0.000000 0.000000 -0.000000 0.000000 0.000000 -0.000000 0.000000 -0.000000 0.000000 -0.000000 -0.000000 0.000000 -0.000000 0.000000 0.000000 0.000000 
-0.054639 81.139160 3.323589 -2.071339 2.080824 -2.031386 0.000000 0.000000 -0.000000 -31.256588 4.604064 5.694896 50.953662 2.457757 0.669289 -3.682400 0.527732 -7.774020 -0.000000 -0.000000 0.000001 -0.000000 -0.000000 0.000001 -0.000000 -0.000000 -0.000000 -9.082779 -4.755412 6.356893 28.915691 6.914381 1.186288 -11.067081 1.457895 -9.555076 0.000000 -0.000001 -0.000000 0.000000 -0.000001 -0.000000 -0.000001 -0.000001 0.000000 14.037875 1.531549 2.814257 -4.231248 1.296997 -1.226171 -4.202660 1.186396 -1.371751 -0.549592 -1.792336 2.478576 -5.531189 -0.674568 -1.261041 -0.000000 0.000000 -0.000000 -0.000000 0.000000 -0.000000 -0.000000 0.000000 -0.000000 2.373307 3.004484 -1.427517 -0.968030 -6.857030 -74.144224 12.093400 -12.007945 -8.986399 -0.429484 2.575265 11.407113 -4.982806 13.405872 11.311726 3.517585 8.486753 1.851565 0.000000 0.000001 0.000003 0.397916 -5.653214 -24.957711 -0.034797 0.056738 -21.949289 -0.000001 0.000000 -0.000000 -0.651656 -5.378210 -28.858482 -0.001645 0.003176 -24.530344 0.000002 0.000001 0.000002 -1.923034 -6.333154 -34.035072 0.001217 0.004686 -27.992415 -0.000002 -0.000001 -0.000004 -3.561282 -7.359099 -38.963630 -0.009537 0.002245 -31.261745 -0.000000 -0.000000 0.000001 0.000000 0.000000 0.000000 3.474003 0.114157 4.545547 -0.387675 30.911722 68.794902 6.529139 21.120316 2.402061 -22.903545 0.664374 -12.639502 -0.779425 -20.571673 -5.078652 4.533685 -11.054798 -2.311477 -0.000001 0.000002 -0.000001 1.100030 0.152086 26.197045 -0.034723 -0.056729 21.928531 0.000000 0.000001 0.000000 -0.236214 1.557724 27.649526 0.007066 -0.003268 22.897922 -0.000001 0.000001 0.000002 -1.405137 3.618728 31.206950 0.000728 -0.012305 25.287607 -0.000005 -0.000000 0.000002 -3.023725 6.001064 34.981275 0.003183 -0.008931 27.780959 -0.000003 0.000001 -0.000003 -0.000001 -0.000002 0.000001 -0.000000 0.000000 -0.000000 -0.000000 0.000000 -0.000000 -0.000000 0.000000 -0.000000 -0.000000 0.000000 -0.000000 -0.000000 0.000000 0.000000 -0.000000 -0.000000 0.000000 -0.000000 0.000000 -0.000000 -0.000000 0.000000 0.000000 -0.000000 -0.000000 0.000000 -0.000000 -0.000000 0.000000 -0.000000 -0.000000 0.000000 0.000000 0.000000 -0.000000 
0.026929 81.120865 6.022382 -1.428748 1.634668 -1.920444 -0.000000 0.000000 0.000000 -31.505774 5.608088 4.919236 39.444271 2.340622 0.729905 -3.227594 0.039989 -5.977341 -0.000000 -0.000001 0.000000 -0.000000 -0.000001 0.000000 0.000000 0.000002 0.000000 -9.796073 -4.701694 6.029215 31.886417 6.920796 1.251287 -9.917153 1.184074 -9.024557 0.000000 0.000000 -0.000000 0.000000 0.000000 -0.000000 -0.000001 0.000000 0.000000 13.271570 1.849278 2.625301 -3.941327 1.650261 -1.283952 -3.902295 1.528308 -1.459854 -0.619933 -1.797594 2.035602 -5.720510 -0.908392 -0.910492 0.000000 0.000000 -0.000000 0.000000 0.000000 -0.000000 0.000000 0.000000 -0.000000 2.460517 4.073051 -2.844165 2.714090 -5.361912 -73.022427 12.642894 -16.412683 -8.259160 -0.690611 5.374185 10.965832 -4.981197 13.413118 11.313611 3.518865 8.489417 1.852373 -0.000001 0.000001 -0.000001 0.381159 -5.972312 -25.399780 -0.034508 0.056911 -22.247207 -0.000002 -0.000003 -0.000002 -0.692022 -5.536256 -29.293404 -0.000139 0.004312 -24.821959 -0.000002 -0.000001 0.000002 -1.981388 -6.411328 -34.481551 0.001269 0.005557 -28.290828 0.000000 -0.000000 -0.000004 -3.615267 -7.358661 -39.354201 -0.008755 0.003359 -31.524482 -0.000000 0.000000 -0.000000 0.000001 0.000001 -0.000000 3.457520 0.372571 4.507055 -0.046055 33.864908 67.111615 5.871821 22.745476 0.346434 -24.733141 0.321707 -12.649024 -0.774640 -20.593563 -5.082733 4.520617 -11.026823 -2.305539 -0.000002 -0.000000 -0.000001 0.993802 1.058210 26.342788 -0.034638 -0.056829 22.035310 0.000001 0.000001 0.000002 -0.321025 2.148106 27.730758 0.007318 -0.003439 22.951853 0.000001 0.000003 0.000002 -1.481119 4.014340 31.233205 0.000752 -0.012349 25.301203 0.000001 -0.000000 0.000006 -3.064198 6.188366 34.944173 0.003038 -0.008810 27.751330 -0.000003 0.000001 -0.000001 -0.000001 0.000001 0.000001 0.000000 0.000000 -0.000000 0.000000 0.000000 -0.000000 0.000000 0.000000 -0.000000 0.000000 0.000000 -0.000000 0.000000 0.000000 -0.000000 0.000000 -0.000000 -0.000000 0.000000 0.000000 -0.000000 0.000000 0.000000 -0.000000 0.000000 -0.000000 -0.000000 -0.000000 -0.000000 -0.000000 -0.000000 -0.000000 -0.000000 -0.000000 0.000000 0.000000 
0.144676 81.123047 8.859125 -0.892899 1.061351 -1.921466 0.000000 0.000000 0.000000 -30.666122 7.307532 4.324278 26.997313 0.084464 0.650851 -3.250450 -0.371411 -5.707613 -0.000000 0.000000 -0.000000 -0.000000 0.000000 0.000000 0.000001 0.000001 0.000000 -10.066680 -4.542938 5.817341 34.332851 7.015062 1.291482 -8.261373 0.849671 -8.378083 -0.000001 -0.000000 0.000000 -0.000001 -0.000000 0.000000 0.000001 0.000000 0.000001 12.586508 2.146889 1.848261 -3.773008 1.761098 -0.568210 -3.744868 1.706188 -0.752437 -0.520695 -1.414670 0.501843 -6.023030 -1.201446 -0.187032 0.000000 -0.000000 -0.000000 0.000000 -0.000000 -0.000000 0.000000 -0.000000 -0.000000 2.578673 4.993296 -4.058806 3.341118 -4.821100 -73.461150 13.190720 -13.576230 -9.054154 -0.647679 4.589311 11.466285 -4.980888 13.414278 11.313919 3.519169 8.490080 1.852427 -0.000000 0.000000 -0.000002 0.438643 -5.406599 -25.859139 -0.034193 0.057274 -22.550783 -0.000000 0.000000 -0.000004 -0.658634 -5.117967 -29.618706 0.001029 0.005169 -25.041229 -0.000001 -0.000001 -0.000003 -1.947856 -6.122443 -34.696569 0.001161 0.004545 -28.438912 -0.000000 -0.000001 -0.000002 -3.583610 -7.217188 -39.401637 -0.008697 0.003515 -31.560200 -0.000001 0.000003 0.000000 0.000000 -0.000000 0.000000 3.361166 1.117562 3.036388 -1.511054 34.741470 66.714002 5.242772 23.476625 -0.383384 -24.503353 0.616467 -12.830107 -0.782573 -20.557423 -5.075969 4.520897 -11.027437 -2.305725 -0.000002 0.000002 0.000000 0.735897 2.667636 25.170488 -0.035408 -0.056180 21.252035 -0.000003 -0.000003 0.000001 -0.418597 3.009629 27.114750 0.005156 -0.001779 22.532465 -0.000000 0.000003 0.000000 -1.509595 4.259265 31.011842 0.000802 -0.011332 25.148582 -0.000005 0.000000 0.000002 -2.973502 5.732259 35.136484 0.003485 -0.009457 27.891110 -0.000000 0.000001 -0.000001 0.000002 -0.000002 0.000000 0.000000 -0.000000 0.000000 0.000000 -0.000000 0.000000 0.000000 -0.000000 0.000000 0.000000 -0.000000 0.000000 0.000000 -0.000000 0.000000 -0.000000 -0.000000 0.000000 0.000000 -0.000000 0.000000 0.000000 -0.000000 0.000000 -0.000000 -0.000000 0.000000 0.000000 -0.000000 0.000000 0.000000 -0.000000 0.000000 0.000000 0.000000 0.000000 
0.271361 81.007217 11.772634 -0.774801 0.397837 -2.267555 -0.000000 -0.000000 0.000000 -29.646412 10.644535 4.343833 16.933120 -5.480001 0.275216 -4.465128 -0.650938 -5.833180 -0.000002 -0.000001 -0.000000 -0.000002 -0.000001 -0.000000 0.000001 -0.000000 -0.000000 -9.698052 -4.296329 5.992571 36.584754 7.122435 1.319655 -6.512903 0.506961 -7.709903 0.000001 0.000000 -0.000000 0.000001 0.000000 -0.000000 -0.000001 0.000000 0.000001 12.558200 2.515811 1.986285 -3.765149 2.085155 -0.605452 -3.724458 2.025185 -0.824588 -0.329289 -1.478735 0.677190 -6.453722 -1.238484 -0.102409 -0.000000 -0.000000 -0.000000 -0.000000 -0.000000 -0.000000 -0.000000 -0.000000 -0.000000 2.518491 4.805303 -3.245320 3.001164 -3.937118 -75.151417 14.151798 -9.064007 -10.079666 -0.538672 3.311121 11.986547 -4.980013 13.417994 11.314932 3.517264 8.486139 1.851476 -0.000002 -0.000001 -0.000001 0.462335 -5.361232 -26.599651 -0.033693 0.057635 -23.047867 -0.000001 -0.000000 -0.000000 -0.688002 -5.115351 -30.173003 0.002958 0.006653 -25.414067 0.000000 0.000000 -0.000001 -2.002845 -6.191879 -35.112759 0.001225 0.004616 -28.717541 -0.000000 0.000000 -0.000002 -3.652242 -7.363629 -39.615705 -0.008297 0.004055 -31.699536 -0.000000 -0.000000 0.000001 0.000000 -0.000000 -0.000000 3.361611 1.211758 3.203467 -2.510200 35.353537 65.636929 4.136855 24.356818 -0.647749 -24.075129 1.157226 -12.731358 -0.779769 -20.570067 -5.078342 4.522408 -11.030702 -2.306379 0.000002 -0.000001 -0.000003 0.847049 1.879832 25.849498 -0.034951 -0.056510 21.704417 -0.000005 0.000002 0.000002 -0.356583 2.488962 27.078545 0.004974 -0.001715 22.507685 0.000002 0.000003 0.000000 -1.398246 3.933341 30.327140 0.000850 -0.008250 24.688926 0.000003 -0.000000 0.000002 -2.792842 5.668395 33.793717 0.001060 -0.005489 26.986277 -0.000003 -0.000000 -0.000003 -0.000000 -0.000001 -0.000001 0.000000 0.000000 -0.000000 0.000000 0.000000 -0.000000 0.000000 0.000000 -0.000000 0.000000 0.000000 -0.000000 0.000000 0.000000 -0.000000 -0.000000 0.000000 -0.000000 0.000000 0.000000 -0.000000 0.000000 0.000000 -0.000000 -0.000000 0.000000 -0.000000 -0.000001 0.000000 -0.000000 -0.000001 0.000000 -0.000000 -0.000000 -0.000000 0.000000 
